<?xml version="1.0" encoding="utf-8"?>
<!-- Generator: Adobe Illustrator 26.0.2, SVG Export Plug-In . SVG Version: 6.00 Build 0)  -->
<svg version="1.1" id="Layer_1" xmlns="http://www.w3.org/2000/svg" xmlns:xlink="http://www.w3.org/1999/xlink" x="0px" y="0px"
	 viewBox="0 0 600 600" style="enable-background:new 0 0 600 600;" xml:space="preserve">
<style type="text/css">
	.st0{fill:#FFFFFF;}
</style>
<g>
	<path class="st0" d="M270.59,314.71c0,21.5-15.41,39.01-34.79,39.01c-19.08,0-34.8-17.51-34.8-39.01s15.41-39.01,34.8-39.01
		C255.33,275.7,270.89,293.36,270.59,314.71z"/>
	<path class="st0" d="M399.24,314.71c0,21.5-15.26,39.01-34.8,39.01c-19.07,0-34.79-17.51-34.79-39.01s15.41-39.01,34.79-39.01
		C383.98,275.7,399.54,293.36,399.24,314.71z"/>
	<path class="st0" d="M300,0C134.31,0,0,134.31,0,300s134.31,300,300,300s300-134.31,300-300S465.69,0,300,0z M491.92,397.7
		c-0.04,0.36-0.22,0.68-0.51,0.89c-29.26,21.67-62.01,38.19-96.83,48.85c-0.51,0.15-1.05-0.03-1.36-0.46
		c-7.36-10.22-13.97-20.96-19.76-32.14c-0.02-0.05-0.04-0.09-0.06-0.13c-0.24-0.64,0.08-1.35,0.72-1.59
		c10.46-3.94,20.56-8.74,30.21-14.38c0.14-0.08,0.26-0.19,0.36-0.32c0.41-0.55,0.3-1.33-0.25-1.74c-2.04-1.52-4.07-3.11-6.01-4.71
		c-0.36-0.29-0.85-0.35-1.27-0.15c-62.61,28.91-131.21,28.91-194.57,0c-0.42-0.19-0.9-0.13-1.25,0.16c-1.94,1.6-3.97,3.18-6,4.7
		c-0.13,0.1-0.24,0.22-0.32,0.36c-0.35,0.59-0.15,1.35,0.44,1.7c9.67,5.59,19.77,10.4,30.2,14.39c0.05,0.02,0.09,0.04,0.13,0.06
		c0.61,0.3,0.85,1.04,0.54,1.65c-5.69,11.24-12.31,22-19.78,32.16c-0.31,0.41-0.85,0.59-1.35,0.44
		c-34.76-10.69-67.45-27.21-96.68-48.85c-0.28-0.22-0.47-0.55-0.5-0.9c-6.75-72.21,7-145.33,57.19-220.28
		c0.13-0.2,0.31-0.36,0.52-0.45c25.1-11.53,51.59-19.74,78.81-24.43c0.51-0.08,1.01,0.16,1.27,0.6c3.69,6.52,7.01,13.25,9.96,20.14
		c29.34-4.45,59.18-4.45,88.52,0c2.93-6.87,6.2-13.6,9.81-20.14c0.25-0.46,0.76-0.7,1.26-0.6c27.22,4.7,53.71,12.91,78.81,24.43
		c0.22,0.09,0.4,0.25,0.5,0.46C478.4,241.7,499.99,314.22,491.92,397.7z"/>
</g>
</svg>
