<?xml version="1.0" encoding="utf-8"?>
<!-- Generator: Adobe Illustrator 26.0.2, SVG Export Plug-In . SVG Version: 6.00 Build 0)  -->
<svg version="1.1" id="Layer_1" xmlns="http://www.w3.org/2000/svg" xmlns:xlink="http://www.w3.org/1999/xlink" x="0px" y="0px"
	 viewBox="0 0 600 600" style="enable-background:new 0 0 600 600;" xml:space="preserve">
<style type="text/css">
	.st0{fill:#FFFFFF;}
</style>
<g>
	
		<ellipse transform="matrix(0.1602 -0.9871 0.9871 0.1602 -43.411 547.4165)" class="st0" cx="300" cy="299.22" rx="63.73" ry="63.73"/>
	<path class="st0" d="M437.57,163.99C423.58,150,404.15,143,380.83,143H220.72c-23.31,0-43.52,7-56.73,20.21
		C150,177.2,143,196.63,143,219.95v159.33c0,24.09,7,43.52,20.99,57.51C177.98,450,197.41,457,220.72,457h158.56
		c23.31,0,42.74-7,56.73-20.21c13.99-13.21,22.54-32.64,22.54-56.74v-160.1C458.55,197.41,450.78,177.98,437.57,163.99z M300,398.71
		c-55.18,0-99.48-44.3-99.48-99.49c0-55.18,45.07-99.48,99.48-99.48s99.48,45.08,99.48,99.48
		C399.48,353.63,355.18,398.71,300,398.71z M403.37,219.95c-12.45,0-22.54-10.09-22.54-22.54c0-12.45,10.09-22.54,22.54-22.54
		s22.54,10.09,22.54,22.54C425.91,209.86,415.82,219.95,403.37,219.95z"/>
	<path class="st0" d="M300,0C134.31,0,0,134.31,0,300s134.31,300,300,300s300-134.31,300-300S465.69,0,300,0z M492.75,380.05
		c0,33.42-10.88,62.18-31.87,82.39c-20.2,19.43-48.18,30.31-81.6,30.31H220.72c-31.86,0-59.84-10.1-80.83-30.31
		c-21.76-20.99-32.64-49.74-32.64-83.16V219.95c0-67.62,45.08-112.7,112.7-112.7h160.1c32.65,0,61.4,10.88,81.61,31.87
		c20.21,20.2,31.09,48.18,31.09,80.83V380.05z"/>
</g>
</svg>
