<?xml version="1.0" encoding="utf-8"?>
<!-- Generator: Adobe Illustrator 26.0.2, SVG Export Plug-In . SVG Version: 6.00 Build 0)  -->
<svg version="1.1" id="Layer_1" xmlns="http://www.w3.org/2000/svg" xmlns:xlink="http://www.w3.org/1999/xlink" x="0px" y="0px"
	 viewBox="0 0 600 600" style="enable-background:new 0 0 600 600;" xml:space="preserve">
<style type="text/css">
	.st0{fill:#000000;}
</style>
<g>
	<path class="st0" d="M300,0C134.31,0,0,134.31,0,300s134.31,300,300,300s300-134.31,300-300S465.69,0,300,0z M460.75,223.62
		c0.16,3.43,0.23,6.88,0.23,10.34c0,105.51-80.31,227.17-227.17,227.17c-45.09,0-87.05-13.21-122.4-35.87
		c6.25,0.74,12.61,1.12,19.05,1.12c37.41,0,71.83-12.77,99.16-34.18c-34.93-0.64-64.42-23.73-74.58-55.45
		c4.87,0.94,9.87,1.44,15.02,1.44c7.29,0,14.34-0.98,21.04-2.8c-36.53-7.35-64.05-39.61-64.05-78.29c0-0.34,0-0.68,0.01-1.01
		c10.76,5.98,23.08,9.58,36.16,9.99c-21.42-14.31-35.52-38.75-35.52-66.45c0-14.65,3.94-28.36,10.81-40.15
		c39.38,48.31,98.22,80.09,164.58,83.43c-1.37-5.86-2.07-11.95-2.07-18.2c0-44.1,35.75-79.84,79.84-79.84
		c22.96,0,43.71,9.7,58.27,25.21c18.2-3.58,35.28-10.23,50.7-19.38c-5.96,18.66-18.61,34.3-35.1,44.17
		c16.15-1.92,31.55-6.21,45.86-12.56C489.89,198.32,476.35,212.39,460.75,223.62z"/>
</g>
</svg>
